Coordinates
version=1
nRows=32
nColumns=22
inDegrees=yes

Units are S.I. units (second, meters, Newtons, ...)
If the header above contains a line with 'inDegrees', this indicates whether rotational values are in degrees (yes) or radians (no).

endheader
time	pelvis_tilt	pelvis_list	pelvis_rotation	pelvis_tx	pelvis_ty	pelvis_tz	hip_flexion_r	hip_adduction_r	hip_rotation_r	knee_angle_r	ankle_angle_r	subtalar_angle_r	hip_flexion_l	hip_adduction_l	hip_rotation_l	knee_angle_l	ankle_angle_l	subtalar_angle_l	lumbar_extension	lumbar_bending	lumbar_rotation
      1.32000000	    -11.34232398	      1.31544791	     -3.52350666	     -0.91948474	      0.95876981	     -0.21758324	     42.43740386	     -2.27224396	     -7.44099880	    -36.34132922	     16.14628259	     -5.83921284	     10.74424683	      5.44651944	     -6.89605192	    -17.98080607	     26.68574587	     -2.39053504	     -2.35526641	     -1.00983984	      1.50469851
      1.33000000	    -11.26721627	      1.40626609	     -3.64197262	     -0.91518340	      0.95806579	     -0.21680500	     42.78396103	     -2.26079722	     -7.97306313	    -35.53148431	     15.86508321	     -5.65471945	     10.36856975	      5.50410449	     -7.06513529	    -17.94564412	     26.90029285	     -2.33820527	     -2.49532006	     -1.11905136	      1.53038185
      1.34000000	    -11.23679353	      1.56942178	     -3.75583490	     -0.91078671	      0.95719330	     -0.21602700	     43.21015281	     -2.32610745	     -8.51849811	    -34.80230963	     15.58403415	     -5.57738787	     10.03847402	      5.64214965	     -7.22539540	    -17.90824586	     27.10353043	     -2.33329037	     -2.57330635	     -1.30727943	      1.56799527
      1.35000000	    -11.14947070	      1.68136900	     -3.84692334	     -0.90630633	      0.95642004	     -0.21522345	     43.52982787	     -2.35863102	     -9.10094003	    -34.04057112	     15.17075771	     -5.47886927	      9.66412343	      5.73118522	     -7.33314980	    -17.92477907	     27.33415098	     -2.28703520	     -2.73771586	     -1.43812219	      1.57974720
      1.36000000	    -11.07638180	      1.81676204	     -3.93157665	     -0.90163805	      0.95555403	     -0.21441653	     43.86625253	     -2.43522910	     -9.74990153	    -33.34029934	     14.83014903	     -5.42885472	      9.28685011	      5.84673002	     -7.45571156	    -17.92311285	     27.55801534	     -2.24958860	     -2.86991107	     -1.58811908	      1.58858312
      1.37000000	    -10.97675500	      1.91373903	     -3.98866462	     -0.89678667	      0.95471473	     -0.21360889	     44.13324359	     -2.50869648	    -10.49084502	    -32.64340195	     14.51983036	     -5.42732654	      8.87050164	      5.92761288	     -7.53468052	    -17.92897351	     27.78065565	     -2.18583795	     -3.03146201	     -1.68852533	      1.55869653
      1.38000000	    -10.88453733	      2.02658480	     -4.03196342	     -0.89180804	      0.95380383	     -0.21278792	     44.39994644	     -2.61361331	    -11.27580229	    -31.98898891	     14.22239540	     -5.42820256	      8.47087188	      6.02682591	     -7.58865802	    -17.96732912	     28.01192733	     -2.13831411	     -3.18240916	     -1.80509540	      1.53209612
      1.39000000	    -10.78786817	      2.12491742	     -4.05274957	     -0.88666861	      0.95286518	     -0.21194926	     44.63098966	     -2.72739028	    -12.12611453	    -31.35391279	     13.97443653	     -5.42158431	      8.06614081	      6.11217726	     -7.60602813	    -18.02842059	     28.24825681	     -2.09314417	     -3.33453072	     -1.90269099	      1.48426050
      1.40000000	    -10.69366502	      2.23283964	     -4.05761046	     -0.88140240	      0.95187492	     -0.21109146	     44.84550023	     -2.86244430	    -13.00202080	    -30.75061063	     13.76286060	     -5.39499139	      7.67750393	      6.20688872	     -7.60032502	    -18.13278006	     28.49842802	     -2.05702003	     -3.48214103	     -2.00911480	      1.42835968
      1.41000000	    -10.58520244	      2.30121129	     -4.03319086	     -0.87592781	      0.95090457	     -0.21021391	     44.98967890	     -2.98554557	    -13.95037552	    -30.14531337	     13.66518426	     -5.38208610	      7.25844089	      6.26105922	     -7.55207487	    -18.24082549	     28.73209226	     -2.00337711	     -3.63909547	     -2.06725166	      1.34490210
      1.42000000	    -10.47287554	      2.36886788	     -4.00040969	     -0.87028316	      0.94992542	     -0.20928815	     45.09311744	     -3.10542943	    -14.88747369	    -29.55361555	     13.63901371	     -5.38306359	      6.82965371	      6.31049402	     -7.49796772	    -18.36177057	     28.95236887	     -1.93995008	     -3.79343039	     -2.12259830	      1.25957676
      1.43000000	    -10.36094217	      2.43221499	     -3.95380905	     -0.86447221	      0.94894513	     -0.20831844	     45.15433959	     -3.21657152	    -15.79221920	    -28.97080419	     13.67722972	     -5.40389207	      6.39324972	      6.35069829	     -7.43645265	    -18.49016694	     29.15109735	     -1.86222120	     -3.94048457	     -2.17200547	      1.16767990
      1.44000000	    -10.25832277	      2.50168643	     -3.89171441	     -0.85850448	      0.94794567	     -0.20731560	     45.18838076	     -3.32499417	    -16.62809800	    -28.40881292	     13.76348590	     -5.43802468	      5.96629607	      6.39110713	     -7.37288939	    -18.63936202	     29.33183554	     -1.77484858	     -4.07090914	     -2.22480923	      1.06738862
      1.45000000	    -10.16320064	      2.56640332	     -3.81039638	     -0.85238440	      0.94694949	     -0.20626746	     45.18381344	     -3.41561040	    -17.36860917	    -27.85888408	     13.87412418	     -5.48371978	      5.54034153	      6.41968150	     -7.29882456	    -18.79544564	     29.48498652	     -1.66661616	     -4.18988675	     -2.27096753	      0.95507609
      1.46000000	    -10.08372944	      2.63279556	     -3.71568778	     -0.84610566	      0.94593869	     -0.20517071	     45.15462405	     -3.48716777	    -17.97395545	    -27.34023332	     13.98880536	     -5.53723092	      5.12957019	      6.44175357	     -7.22182414	    -18.96827906	     29.61266306	     -1.54044999	     -4.28365180	     -2.31538494	      0.83574491
      1.47000000	    -10.01215881	      2.68713044	     -3.60300832	     -0.83966126	      0.94494185	     -0.20401335	     45.08481387	     -3.52657375	    -18.42856704	    -26.85353431	     14.07655479	     -5.61278655	      4.72358957	      6.44234222	     -7.13133454	    -19.15702228	     29.71349930	     -1.37433170	     -4.36424166	     -2.34526883	      0.70451923
      1.48000000	     -9.95511435	      2.73470393	     -3.48341744	     -0.83303701	      0.94394097	     -0.20278436	     44.99079522	     -3.53475827	    -18.71650497	    -26.42976786	     14.12911579	     -5.73055605	      4.33188971	      6.42225027	     -7.05933082	    -19.36392153	     29.79204313	     -1.15977784	     -4.41933640	     -2.36266326	      0.56186141
      1.49000000	     -9.94662958	      2.78201547	     -3.31822249	     -0.82627595	      0.94287403	     -0.20156300	     44.91480873	     -3.54551511	    -18.85406906	    -26.09632138	     14.18915874	     -5.83176739	      4.01520515	      6.39612466	     -6.91727978	    -19.63463984	     29.84853637	     -0.99644469	     -4.41397512	     -2.37316898	      0.39394956
      1.50000000	     -9.94011185	      2.79904434	     -3.13526881	     -0.81930987	      0.94185884	     -0.20028202	     44.79203949	     -3.51531186	    -18.85294891	    -25.84061142	     14.15069207	     -5.97907205	      3.69865296	      6.32754481	     -6.75259337	    -19.92908197	     29.87022485	     -0.77289110	     -4.39825662	     -2.34347674	      0.20547436
      1.51000000	     -9.93759586	      2.79437888	     -2.94340106	     -0.81213965	      0.94087152	     -0.19894638	     44.64699290	     -3.45507940	    -18.72931494	    -25.70871193	     14.03728981	     -6.19376345	      3.39676336	      6.22387040	     -6.58218919	    -20.27079487	     29.86286957	     -0.47779190	     -4.36788251	     -2.28146782	      0.01912678
      1.52000000	     -9.95655889	      2.77629413	     -2.73751919	     -0.80475141	      0.93990474	     -0.19756061	     44.49338745	     -3.37540225	    -18.50946724	    -25.68866929	     13.83244371	     -6.45984618	      3.12549595	      6.09319358	     -6.40199337	    -20.65235657	     29.82838537	     -0.13743679	     -4.29562289	     -2.19723627	     -0.17064235
      1.53000000	     -9.99726669	      2.73230981	     -2.52403351	     -0.79716300	      0.93897576	     -0.19613069	     44.35123045	     -3.27208757	    -18.23775584	    -25.80949832	     13.45096277	     -6.74198139	      2.88242087	      5.92830119	     -6.17706271	    -21.06687530	     29.73979095	      0.21048784	     -4.18458876	     -2.07380912	     -0.35331260
      1.54000000	    -10.05102174	      2.66628238	     -2.32571558	     -0.78934651	      0.93810324	     -0.19461053	     44.21702689	     -3.13366890	    -17.91487659	    -26.05729022	     12.88146116	     -7.14612675	      2.65560236	      5.72693383	     -5.96149883	    -21.51028686	     29.61216137	      0.64635892	     -4.03812876	     -1.91604454	     -0.53306915
      1.55000000	    -10.11041839	      2.56835582	     -2.15453014	     -0.78132479	      0.93731628	     -0.19297551	     44.09573735	     -2.95576587	    -17.60521406	    -26.42668911	     12.09990114	     -7.65145681	      2.44984698	      5.48223097	     -5.72948441	    -22.00742530	     29.42492352	      1.13001313	     -3.86937121	     -1.72085325	     -0.64629362
      1.56000000	    -10.15503025	      2.45875777	     -2.02545293	     -0.77309020	      0.93665592	     -0.19122883	     43.97670340	     -2.74736786	    -17.27801729	    -26.89921011	     11.12841349	     -8.31262538	      2.23593737	      5.21734707	     -5.51382656	    -22.53728838	     29.17791844	      1.69528674	     -3.70095911	     -1.50324643	     -0.73678419
      1.57000000	    -10.18315352	      2.30981191	     -1.95160169	     -0.76464382	      0.93615232	     -0.18933654	     43.85736522	     -2.48582317	    -16.98894110	    -27.45129585	     10.01304066	     -9.09623486	      2.02211000	      4.90376274	     -5.30061932	    -23.12283073	     28.86009120	      2.32972200	     -3.53628402	     -1.23767728	     -0.75332283
      1.58000000	    -10.19020498	      2.12448103	     -1.94790399	     -0.75598780	      0.93582459	     -0.18729013	     43.73252478	     -2.16432608	    -16.71629998	    -28.05849037	      8.84790742	     -9.96475692	      1.80174789	      4.54720969	     -5.10062035	    -23.75996026	     28.46443589	      3.03885032	     -3.38015246	     -0.92594397	     -0.68754917
      1.59000000	    -10.15365578	      1.93462268	     -2.01338771	     -0.74717412	      0.93571510	     -0.18510553	     43.58918268	     -1.81285473	    -16.42817249	    -28.73015387	      7.76666898	    -10.89850488	      1.56709168	      4.18513051	     -4.91125236	    -24.46748957	     27.95709894	      3.85249664	     -3.27006473	     -0.60512656	     -0.58117719
      1.60000000	    -10.09514005	      1.71748108	     -2.14684048	     -0.73821352	      0.93579739	     -0.18277866	     43.42937017	     -1.40316293	    -16.11674966	    -29.43094432	      6.85278690	    -11.82174539	      1.35147032	      3.78970507	     -4.74395307	    -25.26562673	     27.34977168	      4.76035812	     -3.17867678	     -0.24857867	     -0.40947340
      1.61000000	    -10.01743818	      1.49354696	     -2.34922333	     -0.72915258	      0.93605875	     -0.18032065	     43.25045251	     -0.94881446	    -15.77017083	    -30.14751777	      6.16058483	    -12.68047405	      1.17407278	      3.38633541	     -4.59180622	    -26.17775131	     26.62349236	      5.74708385	     -3.10799786	      0.12086633	     -0.19933767
      1.62000000	     -9.92355405	      1.27585262	     -2.58790553	     -0.72001217	      0.93650029	     -0.17779161	     43.04146863	     -0.48365823	    -15.42125546	    -30.86589004	      5.72720348	    -13.48439224	      1.04936261	      2.99073373	     -4.42238434	    -27.21221058	     25.73714651	      6.83434378	     -3.05579947	      0.48704515	      0.02596860
      1.63000000	     -9.82937922	      1.06178573	     -2.85140625	     -0.71085467	      0.93707975	     -0.17518911	     42.79849239	      0.00220737	    -15.04990549	    -31.54230956	      5.50773835	    -14.19244787	      1.02664668	      2.58831807	     -4.26870162	    -28.41902046	     24.71497616	      7.97131796	     -3.01021593	      0.85312372	      0.22730538
